# xmcd
#
# Track frame offsets:
#	150
#	18362
#	44579
#	66279
#	81281
#	104157
#	122231
#	144080
#	157219
#	182139
#	193600
#	214748
#	232870
#	247481
#	265634
#
# Disc length: 3844 seconds
#
# Revision: 2
# Processed by: cddbd v1.5.2PL0 Copyright (c) Steve Scherf et al.
# Submitted via: EasyCDDAExtractor 2010.4.0.0
#
DISCID=e00f020f
DTITLE=Various Artist - Turkce Pop 120
DYEAR=2012
DGENRE=Turkce
TTITLE0=Ferhat Göçer - Cennet
TTITLE1=Sezen Aksu - Sari Odalar
TTITLE2=Ayten Alpman - Sen Benim Sarkilarimsin
TTITLE3=Kenan Doğulu - Ruzgar
TTITLE4=B. Kut and A. Pekkan - Dusman Olma, Pisman Olma
TTITLE5=Aslızen Yentur - Ali
TTITLE6=Emel Müftüoğlu - Altin Kafes
TTITLE7=Funda - Affetmem
TTITLE8=Zeşim Salkım - Yuvarlanan Taslar
TTITLE9=Uğur Akdora - Hayirdir Insallah
TTITLE10=Hande Yener - Yalanin Batsin
TTITLE11=Eylem - Miz Miz
TTITLE12=Sefarad - Osman Aga
TTITLE13=Rezzan Yücel - Bu Gece
TTITLE14=Yeliz - Don Ne Olur
EXTD=YEAR: 2007
EXTT0=
EXTT1=
EXTT2=
EXTT3=
EXTT4=
EXTT5=
EXTT6=
EXTT7=
EXTT8=
EXTT9=
EXTT10=
EXTT11=
EXTT12=
EXTT13=
EXTT14=
PLAYORDER=
